<?xml version="1.0" encoding="UTF-8" standalone="no"?>
<svg
   xmlns:dc="http://purl.org/dc/elements/1.1/"
   xmlns:cc="http://creativecommons.org/ns#"
   xmlns:rdf="http://www.w3.org/1999/02/22-rdf-syntax-ns#"
   xmlns:svg="http://www.w3.org/2000/svg"
   xmlns="http://www.w3.org/2000/svg"
   xmlns:sodipodi="http://sodipodi.sourceforge.net/DTD/sodipodi-0.dtd"
   xmlns:inkscape="http://www.inkscape.org/namespaces/inkscape"
   width="193.4915mm"
   height="28.54821mm"
   viewBox="0 0 193.4915 28.54821"
   version="1.1"
   id="svg8"
   sodipodi:docname="review-app-logo.svg"
   inkscape:version="1.0.2-2 (e86c870879, 2021-01-15)">
  <defs
     id="defs2" />
  <sodipodi:namedview
     id="base"
     pagecolor="#ffffff"
     bordercolor="#666666"
     borderopacity="1.0"
     inkscape:pageopacity="0.0"
     inkscape:pageshadow="2"
     inkscape:zoom="0.7"
     inkscape:cx="379.83499"
     inkscape:cy="174.61934"
     inkscape:document-units="mm"
     inkscape:current-layer="layer1"
     inkscape:document-rotation="0"
     showgrid="false"
     fit-margin-top="0"
     fit-margin-left="0"
     fit-margin-right="0"
     fit-margin-bottom="0"
     inkscape:window-width="1254"
     inkscape:window-height="864"
     inkscape:window-x="2746"
     inkscape:window-y="166"
     inkscape:window-maximized="0" />
  <metadata
     id="metadata5">
    <rdf:RDF>
      <cc:Work
         rdf:about="">
        <dc:format>image/svg+xml</dc:format>
        <dc:type
           rdf:resource="http://purl.org/dc/dcmitype/StillImage" />
        <dc:title></dc:title>
      </cc:Work>
    </rdf:RDF>
  </metadata>
  <g
     inkscape:label="Layer 1"
     inkscape:groupmode="layer"
     id="layer1"
     transform="translate(-9.029458,-54.153703)">
    <g
       id="g911">
      <path
         d="m 11.305744,81.810577 q -2.276286,0 -2.276286,-2.352162 V 56.885246 q 0,-1.176081 0.5690715,-1.78309 0.6070095,-0.644948 1.5554625,-0.644948 0.872576,0 1.289895,0.341443 0.455257,0.303505 1.062267,1.062267 L 27.050055,73.426257 V 56.771432 q 0,-2.314224 2.276286,-2.314224 2.238348,0 2.238348,2.314224 v 22.762859 q 0,1.062267 -0.531134,1.669277 -0.531133,0.607009 -1.441647,0.607009 -0.872577,0 -1.40371,-0.341443 -0.493195,-0.341443 -1.100205,-1.100205 L 13.544092,62.765652 v 16.692763 q 0,2.352162 -2.238348,2.352162 z"
         style="font-style:normal;font-variant:normal;font-weight:bold;font-stretch:normal;font-size:37.9381px;line-height:1.25;font-family:Nunito;-inkscape-font-specification:'Nunito Bold';stroke-width:0.948454"
         id="path843" />
      <path
         d="m 39.304029,59.161532 q -1.327833,0 -2.086595,-0.644947 -0.720824,-0.682886 -0.720824,-1.858967 0,-1.21402 0.720824,-1.858967 0.758762,-0.644948 2.086595,-0.644948 2.80742,0 2.80742,2.503915 0,2.503914 -2.80742,2.503914 z m 0,22.611107 q -1.138143,0 -1.745152,-0.682886 -0.60701,-0.682885 -0.60701,-1.896905 V 65.269566 q 0,-2.579791 2.352162,-2.579791 2.390101,0 2.390101,2.579791 v 13.923282 q 0,1.21402 -0.60701,1.896905 -0.60701,0.682886 -1.783091,0.682886 z"
         style="font-style:normal;font-variant:normal;font-weight:bold;font-stretch:normal;font-size:37.9381px;line-height:1.25;font-family:Nunito;-inkscape-font-specification:'Nunito Bold';stroke-width:0.948454"
         id="path845" />
      <path
         d="m 50.268108,81.810577 q -2.390101,0 -2.390101,-2.428038 V 66.521523 h -1.745152 q -1.896905,0 -1.896905,-1.78309 0,-1.783091 1.896905,-1.783091 h 1.745152 v -0.03794 q 0,-3.907624 1.972782,-5.842467 1.972781,-1.972781 5.690714,-2.314224 l 1.289896,-0.113815 q 0.98639,-0.07588 1.441648,0.41732 0.455257,0.493195 0.455257,1.214019 0.03794,0.682885 -0.341443,1.251957 -0.379381,0.531133 -1.100205,0.60701 l -0.531133,0.03794 q -2.162472,0.151752 -3.148863,1.100204 -0.98639,0.948453 -0.98639,2.883296 v 0.7967 h 3.224738 q 1.896905,0 1.896905,1.783091 0,1.78309 -1.896905,1.78309 H 52.62027 v 12.861016 q 0,2.428038 -2.352162,2.428038 z"
         style="font-style:normal;font-variant:normal;font-weight:bold;font-stretch:normal;font-size:37.9381px;line-height:1.25;font-family:Nunito;-inkscape-font-specification:'Nunito Bold';stroke-width:0.948454"
         id="path847" />
      <path
         d="m 69.085325,81.886453 q -3.148863,0 -5.425148,-1.176081 -2.276286,-1.176081 -3.528244,-3.338552 -1.214019,-2.162472 -1.214019,-5.121644 0,-2.883295 1.176081,-5.045767 1.214019,-2.162471 3.300615,-3.376491 2.124533,-1.251957 4.818138,-1.251957 3.945563,0 6.221849,2.503915 2.314224,2.503914 2.314224,6.828857 0,1.40371 -1.821029,1.40371 H 63.470486 q 0.531133,4.969891 5.690715,4.969891 0.98639,0 2.20041,-0.227629 1.251957,-0.265566 2.352162,-0.872576 0.98639,-0.569071 1.669276,-0.341443 0.682886,0.189691 0.948453,0.7967 0.303504,0.60701 0.07588,1.365772 -0.189691,0.720824 -1.062267,1.251957 -1.327833,0.834638 -3.072986,1.251957 -1.707214,0.379381 -3.1868,0.379381 z M 68.402439,65.8007 q -2.086596,0 -3.376491,1.289895 -1.289895,1.289895 -1.555462,3.490305 h 9.332772 Q 72.651506,68.266676 71.513363,67.052657 70.413158,65.8007 68.402439,65.8007 Z"
         style="font-style:normal;font-variant:normal;font-weight:bold;font-stretch:normal;font-size:37.9381px;line-height:1.25;font-family:Nunito;-inkscape-font-specification:'Nunito Bold';stroke-width:0.948454"
         id="path849" />
      <path
         d="m 105.46898,79.832061 q -3.27768,2.763189 -6.463635,2.868773 -3.181402,0.05213 -5.259907,-2.413386 -1.662805,-1.97241 -1.783226,-4.351926 -0.144873,-2.408522 0.820415,-5.207114 l 0.100675,-0.233736 q -2.133808,-0.235584 -3.531672,-0.893103 -1.422317,-0.686529 -2.375985,-1.81776 -1.833973,-2.17546 -1.421492,-4.805747 0.417035,-2.683739 2.969566,-4.835604 2.378491,-2.005144 4.797808,-1.960637 2.394863,0.0155 4.131027,2.074928 1.320462,1.566324 1.546114,3.658647 0.230206,2.03886 -0.802198,4.993279 l 7.43704,0.875721 q -0.6459,-2.531972 -2.47415,-5.406941 -0.99059,-1.645926 0.34368,-2.770768 1.59533,-1.344914 2.79066,0.426174 1.36195,2.027553 2.15575,4.087487 0.8228,2.035496 1.11557,3.971989 l 4.4081,0.402356 q 1.01572,0.08648 1.48033,0.637625 0.4646,0.551114 0.3474,1.294987 -0.11265,0.69041 -0.8378,1.301734 -0.63812,0.537965 -1.23984,0.648263 -0.62616,0.08129 -1.53496,0.0039 l -2.61494,-0.276555 q -0.26914,2.211714 -1.30205,4.223771 -1.03292,2.012056 -2.80228,3.503687 z M 90.700034,60.723992 q -1.044219,0.880311 -1.168838,2.027401 -0.149072,1.118084 0.706783,2.133294 0.635777,0.754167 1.546269,1.127861 0.915044,0.320251 2.723547,0.581964 0.779274,-2.195187 0.777076,-3.433854 0.02681,-1.263123 -0.755687,-2.191316 -0.831402,-0.986204 -1.851675,-1.019252 -1.020273,-0.03305 -1.977475,0.773902 z m 12.551146,16.065299 q 2.34948,-1.98069 2.60446,-4.9744 l -9.23476,-0.948049 q -0.770171,2.088278 -0.674713,3.496426 0.124463,1.383694 1.151489,2.601948 1.14929,1.363282 2.737715,1.363949 1.617429,-0.02379 3.415809,-1.539874 z"
         style="font-size:37.9381px;line-height:1.25;font-family:Nunito;-inkscape-font-specification:Nunito;fill:#ec5c5c;fill-opacity:1;stroke-width:0.948454"
         id="path851" />
      <path
         d="m 131.56935,81.810577 q -2.50391,0 -2.50391,-2.57979 V 57.340503 q 0,-2.57979 2.57979,-2.57979 h 13.2404 q 1.97278,0 1.97278,1.896905 0,1.972781 -1.97278,1.972781 h -10.96412 v 7.549681 h 10.16742 q 1.97278,0 1.97278,1.896905 0,1.972782 -1.97278,1.972782 h -10.16742 v 9.18102 q 0,2.57979 -2.35216,2.57979 z"
         style="font-style:normal;font-variant:normal;font-weight:bold;font-stretch:normal;font-size:37.9381px;line-height:1.25;font-family:Nunito;-inkscape-font-specification:'Nunito Bold';stroke-width:0.948454"
         id="path853" />
      <path
         d="m 157.70859,81.886453 q -2.88329,0 -5.00783,-1.176081 -2.12453,-1.176081 -3.30061,-3.338552 -1.17608,-2.20041 -1.17608,-5.159582 0,-2.959171 1.17608,-5.121643 1.17608,-2.162472 3.30061,-3.338553 2.12454,-1.176081 5.00783,-1.176081 2.8833,0 5.00783,1.176081 2.12453,1.176081 3.30061,3.338553 1.17609,2.162472 1.17609,5.121643 0,2.959172 -1.17609,5.159582 -1.17608,2.162471 -3.30061,3.338552 -2.12453,1.176081 -5.00783,1.176081 z m 0,-3.604119 q 2.12453,0 3.41443,-1.517524 1.2899,-1.555462 1.2899,-4.552572 0,-3.035048 -1.2899,-4.514634 -1.2899,-1.517524 -3.41443,-1.517524 -2.12453,0 -3.41443,1.517524 -1.28989,1.479586 -1.28989,4.514634 0,2.99711 1.28989,4.552572 1.2899,1.517524 3.41443,1.517524 z"
         style="font-style:normal;font-variant:normal;font-weight:bold;font-stretch:normal;font-size:37.9381px;line-height:1.25;font-family:Nunito;-inkscape-font-specification:'Nunito Bold';stroke-width:0.948454"
         id="path855" />
      <path
         d="m 173.52871,81.810577 q -2.42804,0 -2.42804,-2.428038 V 65.041938 q 0,-2.390101 2.31423,-2.390101 2.31422,0 2.31422,2.390101 v 1.176081 q 1.36577,-3.262677 5.84247,-3.642058 1.63134,-0.18969 1.82103,1.858967 0.18969,2.010719 -1.97278,2.238348 l -0.83464,0.07588 q -4.66639,0.455257 -4.66639,4.7802 v 7.853187 q 0,2.428038 -2.3901,2.428038 z"
         style="font-style:normal;font-variant:normal;font-weight:bold;font-stretch:normal;font-size:37.9381px;line-height:1.25;font-family:Nunito;-inkscape-font-specification:'Nunito Bold';stroke-width:0.948454"
         id="path857" />
      <path
         d="m 188.3245,81.810577 q -2.35217,0 -2.35217,-2.428038 V 56.847308 q 0,-2.3901 2.35217,-2.3901 2.3901,0 2.3901,2.3901 v 13.999159 h 0.0759 l 6.25979,-6.60123 q 0.75876,-0.758762 1.32783,-1.176081 0.56907,-0.417319 1.55546,-0.417319 0.98639,0 1.47959,0.531134 0.53113,0.493195 0.53113,1.214019 0,0.720824 -0.68288,1.441648 l -5.69072,5.994219 6.33566,6.828858 q 0.68289,0.720824 0.60701,1.479586 -0.0379,0.720824 -0.60701,1.214019 -0.56907,0.455257 -1.44164,0.455257 -1.06227,0 -1.70722,-0.417319 -0.60701,-0.417319 -1.36577,-1.251957 l -6.60123,-6.904734 h -0.0759 v 6.145972 q 0,2.428038 -2.3901,2.428038 z"
         style="font-style:normal;font-variant:normal;font-weight:bold;font-stretch:normal;font-size:37.9381px;line-height:1.25;font-family:Nunito;-inkscape-font-specification:'Nunito Bold';stroke-width:0.948454"
         id="path859" />
    </g>
  </g>
</svg>
